<?xml version="1.0" encoding="UTF-8"?>
<!-- Generator: Adobe Illustrator 17.0.0, SVG Export Plug-In . SVG Version: 6.00 Build 0)  -->
<!DOCTYPE svg PUBLIC "-//W3C//DTD SVG 1.1//EN" "http://www.w3.org/Graphics/SVG/1.1/DTD/svg11.dtd">
<svg version="1.1" id="Layer_1" xmlns="http://www.w3.org/2000/svg" xmlns:xlink="http://www.w3.org/1999/xlink" x="0px" y="0px" width="196.25px" height="50px" viewBox="0 0 196.25 50" enable-background="new 0 0 196.25 50" xml:space="preserve">
<path fill="#009AA0" d="M49.685,1.72l-0.04-0.898H0.879v48.499l0.929,0.011c0.096,0,9.774,0.123,18.35,0.123h0.002  c5.044,0,8.733-0.042,10.959-0.123c4.231-0.153,8.319-1.901,12.5-5.341c3.502-2.888,5.542-6.352,6.059-10.308  C50.709,25.812,49.727,2.703,49.685,1.72 M20.157,47.574c-7.015,0-14.771-0.082-17.397-0.115V2.703h45.083  c0.172,4.404,0.861,23.737-0.021,30.657c-0.371,1.358-6.166,3.053-11.379,3.794l-1.362,0.194l0.675,1.2  c0.013,0.02,1.199,2.173,0.353,4.509c-0.666,1.837-2.429,3.317-5.226,4.399c-2.219,0.078-5.818,0.118-10.724,0.118H20.157z   M42.421,42.54c-2.106,1.733-4.173,2.981-6.236,3.797c0.767-0.79,1.339-1.669,1.692-2.637c0.696-1.927,0.382-3.731,0.02-4.865  c2.433-0.401,6.534-1.231,9.209-2.594C46.234,38.571,44.674,40.682,42.421,42.54z"/>
<polygon fill="#009AA0" points="77.507,40.227 77.299,40.227 73.228,40.227 73.228,38.783 77.312,38.783 77.507,38.783   77.59,38.783 77.934,38.783 77.934,36.405 77.694,36.405 77.507,36.405 73.228,36.405 73.228,35.076 73.245,35.062 75.071,35.062   75.292,35.062 77.519,35.062 78.185,35.062 78.185,33.359 78.185,32.986 78.185,32.58 70.336,32.58 70.336,34.594 70.336,35.062   70.336,42.689 70.352,42.689 72.409,42.689 78.408,42.689 78.408,41.699 78.408,41.475 78.408,40.227 "/>
<polygon fill="#009AA0" points="152.117,40.227 151.91,40.227 147.84,40.227 147.84,38.783 151.923,38.783 152.117,38.783   152.201,38.783 152.548,38.783 152.548,36.405 152.308,36.405 152.117,36.405 147.84,36.405 147.84,35.076 147.854,35.059   149.681,35.059 149.901,35.059 152.133,35.059 152.796,35.059 152.796,33.359 152.796,32.986 152.796,32.58 144.948,32.58   144.948,34.594 144.948,35.059 144.948,42.689 144.963,42.689 147.018,42.689 153.017,42.689 153.017,41.699 153.017,41.475   153.017,40.227 "/>
<path fill="#009AA0" d="M113.756,22.943l-0.147-0.34l-0.051-0.107l-1.501-3.363l-3.421-7.735l-1.315-2.967l-0.359-0.813  l-0.143-0.315h-1.81h-2.06h-1.747l-8.476,19.075h0.91h4.73h0.137l0.245-0.716l0.822-2.399h0.12h7.593h1.045l0.731,1.972l0.223,0.617  l0.002,0.001l0.195,0.525h0.18h5.244h0.385L113.756,22.943z M105.762,18.605h-3.555h-0.701l0.467-1.194l1.297-3.296l0.778-1.976  l0.597,1.792l1.274,3.84l0.013,0.031v0.002l0.268,0.8H105.762z"/>
<path fill="#009AA0" d="M95.839,32.739l-0.075-0.171h-0.96h-1.09h-0.927L88.294,42.68h0.483h2.507h0.072l0.13-0.378l0.435-1.272  h0.064h4.025h0.555l0.386,1.048l0.12,0.324l0.105,0.277h0.094h2.781h0.203L95.839,32.739z M95.203,38.56h-1.884h-0.375l0.251-0.631  l0.689-1.747l0.411-1.047l0.315,0.949l0.677,2.035l0.006,0.017l0.141,0.424H95.203z"/>
<path fill="#009AA0" d="M129.614,40.867l-0.077-0.183l-0.028-0.056l-0.799-1.786l-1.81-4.101l-0.698-1.572l-0.191-0.43h-0.001  l-0.076-0.171h-0.959h-1.092h-0.927l-4.496,10.121h0.484h2.507h0.072l0.13-0.384l0.438-1.272h0.062h4.028h0.554l0.388,1.048  l0.121,0.327l0.103,0.28h0.094h2.783h0.207L129.614,40.867z M125.376,38.563h-1.887h-0.374l0.248-0.632l0.689-1.747l0.412-1.05  l0.317,0.952l0.681,2.036l0.003,0.017l0.143,0.424H125.376z"/>
<path fill="#009AA0" d="M184.21,40.867l-0.073-0.183l-0.029-0.053l-0.799-1.789l-1.812-4.101l-0.699-1.572l-0.19-0.43h-0.001  l-0.074-0.171h-0.96h-1.091h-0.929l-4.495,10.121h0.483h2.505h0.075l0.131-0.384l0.437-1.272h0.062h4.028h0.555l0.385,1.048  l0.123,0.327l0.102,0.28h0.095h2.781h0.205L184.21,40.867z M179.973,38.563h-1.888h-0.37l0.246-0.63l0.691-1.749l0.413-1.05  l0.316,0.952l0.677,2.036l0.006,0.017l0.14,0.424H179.973z"/>
<polygon fill="#009AA0" points="119.776,32.57 119.051,32.57 111.007,32.57 111.007,35.014 113.896,35.014 113.939,35.014   113.939,42.686 116.83,42.686 116.83,35.014 119.178,35.014 119.4,35.014 119.776,35.014 "/>
<polygon fill="#009AA0" points="174.372,32.57 173.65,32.57 165.603,32.57 165.603,35.014 168.49,35.014 168.535,35.014   168.535,42.686 171.427,42.686 171.427,35.014 173.776,35.014 173.997,35.014 174.372,35.014 "/>
<polygon fill="#009AA0" points="136.937,39.548 136.937,39.548 136.927,39.537 "/>
<polygon fill="#009AA0" points="140.073,32.57 137.326,35.908 134.742,32.57 131.717,32.57 131.717,42.686 132.053,42.686   132.371,42.686 134.604,42.686 134.604,36.887 134.604,36.788 134.675,36.87 137.356,40.047 140.131,36.682 140.131,42.686   143.022,42.686 143.022,32.57 "/>
<polygon fill="#009AA0" points="161.32,32.57 161.32,37.892 157.132,32.581 157.118,32.581 157.118,32.57 154.733,32.57   154.716,42.686 157.633,42.686 157.633,37.283 161.35,42.185 161.61,42.525 161.733,42.686 164.249,42.686 164.249,40.147   164.249,39.911 164.249,32.57 "/>
<path fill="#009AA0" d="M89.072,36.076v-0.025l-0.003-0.011c-0.03-0.562-0.183-1.097-0.441-1.563l-0.002-0.006l-0.013-0.017  c-0.018-0.029-0.038-0.056-0.055-0.086l-0.087-0.147l-0.039-0.047c-0.274-0.395-0.62-0.741-1.024-1.002  c-0.242-0.16-0.506-0.288-0.783-0.387l-0.154-0.046l-0.18-0.048c-0.002,0-0.002-0.004-0.002-0.004c-0.009,0-0.017-0.003-0.023-0.003  l-0.118-0.031l-0.084-0.017l-0.125-0.023h-0.038c-0.003-0.003-0.006-0.003-0.01-0.003c-0.059-0.01-0.12-0.015-0.174-0.02  c-0.202-0.02-0.352-0.02-0.352-0.02h-2.125H83h-0.693h-1.892h-0.317v7.842v1.496v0.77H83v-2.072v-0.263v-0.421h0.467h0.476h0.607  h0.567h0.477v-0.008c0.777-0.041,1.489-0.319,2.066-0.765c0.855-0.665,1.409-1.694,1.423-2.857c0-0.015,0.002-0.029,0.002-0.042  C89.084,36.189,89.077,36.132,89.072,36.076 M86.179,36.413l-0.013,0.099l-0.058,0.221l-0.042,0.101l-0.096,0.18l-0.056,0.087  l-0.14,0.138l-0.084,0.055l-0.196,0.111l-0.111,0.044l-0.235,0.055h-1.138h-0.875H83v-0.589v-0.105v-1.098v-0.627v-0.052h0.062  h0.621h1.433l0.363,0.094l0.211,0.114l0.112,0.071l0.153,0.167l0.056,0.085l0.082,0.18l0.043,0.111l0.042,0.209V36.413z"/>
<path fill="#009AA0" d="M176.924,13.501l-0.006-0.014l-0.131-0.368l-0.091-0.199c-0.401-0.963-0.937-1.881-1.65-2.696l-0.145-0.198  l-0.29-0.287c-1.068-1.071-2.445-1.818-3.951-2.272l-0.029-0.007l-0.418-0.106l-0.189-0.032c-0.461-0.112-0.928-0.2-1.41-0.259  l-0.186-0.022l-0.062-0.003c-0.44-0.046-0.878-0.072-1.326-0.075l-0.026-0.001l-0.059,0.004c-1.149,0.006-2.293,0.159-3.396,0.453  l-0.081,0.016l-0.392,0.104l-0.161,0.055c-0.124,0.039-0.242,0.081-0.365,0.124l-0.233,0.083l-0.551,0.237l-0.108,0.055  c-1.081,0.493-2.073,1.127-2.88,1.934l-0.314,0.316l-0.081,0.127c-2.242,2.563-2.699,6.046-1.708,9.219l0.007,0.035l0.023,0.085  c0.666,2.197,2.178,3.872,2.178,3.872l-0.135-0.137c0.12,0.145,0.249,0.282,0.378,0.422l0.045,0.054l0.315,0.34  c1.188,1.191,2.927,1.899,4.82,2.212c3.297,0.543,7.071-0.139,9.33-1.711l0.208-0.157l0.205-0.156l0.136-0.107l0.291-0.262  l0.418-0.444l0.261-0.291l0.262-0.34l0.238-0.34l0.051-0.086l0.591-0.983c0.254-0.489,0.461-0.999,0.636-1.516  C177.662,18.012,177.658,15.648,176.924,13.501 M170.495,20.806c-0.358,0.356-0.765,0.623-1.194,0.851  c-0.27,0.141-0.541,0.26-0.826,0.349c-1.813,0.575-3.907,0.148-5.322-1.263c-0.23-0.232-0.428-0.526-0.604-0.856  c-1.013-1.917-1.024-5.233,0.512-6.77c0.624-0.623,1.375-1.087,2.173-1.37l0.12-0.032c0.504-0.173,1.047-0.271,1.61-0.271  c0.443,0,0.871,0.062,1.28,0.173c0.039,0.009,0.081,0.019,0.12,0.029c0.056,0.017,0.112,0.035,0.17,0.055  c0.117,0.039,0.23,0.078,0.342,0.124c0.017,0.007,0.03,0.015,0.052,0.022c0.086,0.039,0.17,0.081,0.255,0.124  c0.196,0.098,0.385,0.206,0.57,0.328c0.02,0.013,0.036,0.029,0.058,0.042c1.286,0.898,2.129,2.39,2.129,4.08  C171.937,18.456,171.44,19.862,170.495,20.806z"/>
<path fill="#009AA0" d="M74.518,18.905c-0.098-0.291-0.232-0.603-0.424-0.93l-0.038-0.061l-0.148-0.22  c-0.5-0.729-1.289-1.486-2.55-2.11l-0.525-0.237l-0.011-0.003c-0.832-0.352-1.651-0.566-2.418-0.715  c-1.372-0.258-2.573-0.31-3.386-0.534L64.99,14.09l-0.01-0.006c-0.663-0.189-1.063-0.505-1.063-1.173  c0-0.607,0.362-1.034,0.947-1.292c0.927-0.408,2.42-0.375,3.98,0.101c0.033,0.007,0.078,0.019,0.152,0.038  c0.233,0.066,0.67,0.213,1.325,0.542l0.026,0.016c0.274,0.133,0.545,0.277,0.808,0.439l0.865-1.305L73.376,9.4l0.132-0.206  c-0.1-0.076-0.198-0.156-0.302-0.225L73.16,8.923c-0.12-0.088-0.273-0.189-0.454-0.304c-1.019-0.634-2.997-1.576-5.824-1.669  c-0.15-0.004-0.295-0.011-0.451-0.011c-0.058,0-0.114,0.003-0.173,0.004c-2.689,0.03-4.868,0.765-6.192,2.197l-0.081,0.077  l-0.082,0.092c-0.176,0.209-0.327,0.436-0.468,0.671l-0.103,0.208l-0.263,0.577l-0.132,0.394l-0.103,0.339l-0.033,0.163  c-0.022,0.118-0.042,0.236-0.056,0.359l-0.043,0.502l-0.026,0.418l0.052,0.811c0.183,1.56,0.898,2.593,1.809,3.309  c0.214,0.167,0.444,0.301,0.673,0.435l0.007,0.005h0.001c0.388,0.228,0.786,0.429,1.191,0.587l0.092,0.042l0.118,0.039  c0.162,0.061,0.32,0.114,0.478,0.167l0.374,0.135l0.417,0.105c1.159,0.334,2.713,0.277,3.875,0.506  c0.857,0.169,1.492,0.492,1.613,1.237c0.013,0.081,0.027,0.164,0.027,0.257c0,0.214-0.024,0.405-0.108,0.56  c-0.85,1.592-4.399,1.055-4.399,1.055c-0.162-0.02-0.34-0.052-0.534-0.094c-0.758-0.173-1.731-0.538-2.742-1.291  c-0.121-0.092-0.242-0.19-0.367-0.291c-0.053-0.048-0.108-0.089-0.163-0.135h-0.007l-0.267-0.216l-0.28,0.325l-0.261,0.287  l-0.238,0.29l-0.002,0.004l-1.519,1.762l-0.156,0.173l-0.105,0.129l-0.235,0.277c0.042,0.046,0.085,0.094,0.131,0.144l0.128,0.146  c0.122,0.13,0.288,0.291,0.495,0.482c0.236,0.214,0.544,0.464,0.889,0.714l0.085,0.073l0.486,0.334  c1.226,0.789,2.906,1.526,4.942,1.526c0.098,0,0.202-0.003,0.302-0.003c0.706-0.009,1.424-0.052,2.139-0.127h0.019l0.356-0.034  c1.247-0.155,2.457-0.443,3.5-0.94l0.336-0.18l0.018-0.013c1.484-0.814,2.552-2.118,2.806-4.146l0.004-0.035l0.049-0.406  l0.006-0.037l0.025-0.445C74.737,20.456,74.813,19.796,74.518,18.905"/>
<path fill="#009AA0" d="M195.141,18.905c-0.098-0.291-0.23-0.603-0.425-0.93l-0.035-0.061l-0.151-0.22  c-0.5-0.729-1.286-1.486-2.549-2.11l-0.524-0.237l-0.011-0.003c-0.833-0.352-1.654-0.566-2.419-0.715  c-1.369-0.258-2.573-0.31-3.388-0.534l-0.026-0.005l-0.01-0.006c-0.663-0.189-1.064-0.505-1.064-1.173  c0-0.607,0.362-1.034,0.948-1.292c0.925-0.408,2.419-0.375,3.979,0.101c0.035,0.007,0.078,0.019,0.153,0.038  c0.234,0.066,0.669,0.213,1.326,0.542l0.025,0.016c0.272,0.133,0.543,0.277,0.807,0.439l0.865-1.305l1.355-2.049l0.133-0.206  c-0.101-0.076-0.199-0.156-0.303-0.225l-0.045-0.046c-0.121-0.088-0.274-0.189-0.455-0.304c-1.02-0.634-2.997-1.576-5.823-1.669  c-0.15-0.004-0.297-0.011-0.45-0.011c-0.059,0-0.115,0.003-0.175,0.004c-2.687,0.03-4.868,0.765-6.19,2.197l-0.081,0.077  l-0.084,0.092c-0.176,0.209-0.325,0.436-0.468,0.671l-0.101,0.208l-0.264,0.577l-0.131,0.394l-0.102,0.339l-0.033,0.163  c-0.023,0.118-0.042,0.236-0.057,0.359l-0.042,0.502l-0.024,0.418l0.049,0.811c0.185,1.56,0.901,2.593,1.811,3.309  c0.212,0.167,0.444,0.301,0.673,0.435l0.007,0.005h0.002c0.388,0.228,0.785,0.429,1.192,0.587l0.091,0.042l0.117,0.039  c0.161,0.061,0.32,0.114,0.478,0.167l0.374,0.135l0.418,0.105c1.159,0.334,2.713,0.277,3.872,0.506  c0.856,0.169,1.494,0.492,1.615,1.237c0.013,0.081,0.027,0.164,0.027,0.257c0,0.214-0.023,0.405-0.107,0.56  c-0.852,1.592-4.401,1.055-4.401,1.055c-0.162-0.02-0.34-0.052-0.534-0.094c-0.758-0.173-1.729-0.538-2.739-1.291  c-0.124-0.092-0.245-0.19-0.369-0.291c-0.053-0.048-0.11-0.089-0.164-0.135h-0.006l-0.268-0.216l-0.278,0.325l-0.263,0.287  l-0.237,0.29l-0.003,0.004l-1.518,1.762l-0.157,0.173l-0.102,0.129l-0.24,0.277c0.044,0.046,0.087,0.094,0.133,0.144l0.13,0.146  c0.121,0.13,0.287,0.291,0.491,0.482c0.241,0.214,0.546,0.464,0.891,0.714l0.085,0.073l0.487,0.334  c1.224,0.789,2.906,1.526,4.942,1.526c0.098,0,0.199-0.003,0.3-0.003c0.708-0.009,1.426-0.052,2.142-0.127h0.016l0.358-0.034  c1.246-0.155,2.456-0.443,3.499-0.94l0.337-0.18l0.018-0.013c1.484-0.814,2.551-2.118,2.806-4.146l0.006-0.035l0.049-0.406  l0.006-0.037l0.022-0.445C195.359,20.456,195.437,19.796,195.141,18.905"/>
<path fill="#009AA0" d="M194.205,38.674c-0.052-0.15-0.124-0.321-0.222-0.492l-0.025-0.032l-0.079-0.117  c-0.262-0.388-0.682-0.792-1.352-1.12l-0.277-0.127l-0.006-0.003c-0.443-0.185-0.876-0.302-1.283-0.376  c-0.73-0.139-1.366-0.164-1.798-0.286l-0.014-0.001l-0.007-0.003c-0.35-0.101-0.561-0.269-0.561-0.621  c0-0.324,0.19-0.553,0.501-0.687c0.492-0.215,1.286-0.201,2.112,0.05c0.019,0.006,0.042,0.012,0.082,0.025  c0.122,0.032,0.353,0.111,0.702,0.286l0.014,0.006c0.143,0.072,0.288,0.15,0.428,0.235l0.458-0.692l0.718-1.088l0.072-0.11  c-0.053-0.04-0.107-0.081-0.16-0.117l-0.025-0.026c-0.065-0.049-0.145-0.101-0.242-0.16c-0.542-0.339-1.592-0.836-3.094-0.888  c-0.075,0-0.155-0.003-0.238-0.003h-0.091c-1.426,0.016-2.585,0.41-3.286,1.168l-0.045,0.042l-0.043,0.047  c-0.091,0.108-0.173,0.229-0.25,0.352l-0.053,0.112l-0.139,0.306l-0.071,0.209l-0.053,0.18l-0.019,0.087  c-0.013,0.063-0.023,0.125-0.032,0.192l-0.02,0.262l-0.014,0.225l0.029,0.432c0.095,0.825,0.479,1.374,0.96,1.751  c0.114,0.092,0.236,0.162,0.359,0.232l0.002,0.003h0.001c0.205,0.12,0.418,0.229,0.631,0.311l0.048,0.022l0.064,0.023  c0.085,0.03,0.17,0.059,0.254,0.085l0.199,0.075l0.22,0.054c0.616,0.177,1.44,0.151,2.056,0.272  c0.453,0.087,0.793,0.261,0.858,0.653c0.006,0.046,0.013,0.088,0.013,0.14c0,0.111-0.01,0.215-0.058,0.294  c-0.449,0.845-2.334,0.562-2.334,0.562c-0.087-0.011-0.179-0.031-0.282-0.049c-0.404-0.095-0.92-0.285-1.456-0.688  c-0.065-0.047-0.128-0.099-0.193-0.153c-0.03-0.028-0.059-0.046-0.086-0.075h-0.004l-0.143-0.112l-0.147,0.172l-0.141,0.151  l-0.127,0.153v0.003l-0.804,0.936l-0.082,0.092l-0.057,0.072l-0.125,0.143c0.023,0.026,0.045,0.05,0.069,0.078l0.066,0.078  c0.068,0.068,0.156,0.153,0.264,0.257c0.125,0.114,0.291,0.246,0.471,0.378l0.046,0.038l0.258,0.177  c0.651,0.42,1.544,0.81,2.624,0.81c0.055,0,0.108-0.003,0.16-0.006c0.376-0.003,0.754-0.023,1.137-0.063h0.006l0.19-0.02  c0.663-0.079,1.303-0.232,1.855-0.497l0.179-0.095l0.012-0.006c0.787-0.434,1.353-1.125,1.489-2.201l0.003-0.017l0.024-0.218  l0.001-0.02l0.016-0.235C194.322,39.498,194.361,39.15,194.205,38.674"/>
<path fill="#009AA0" d="M154.522,15.941l-0.003-0.056l-0.014-0.121l-0.039-0.298l-0.078-0.446l-0.077-0.421l-0.039-0.215  c-1.149-4.926-5.118-6.449-7.845-6.905c-1.325-0.146-2.7-0.174-2.7-0.174h-6.155V7.303h-1.104v17.971l-0.003,0.006l0.003,0.014  v1.087h1.104h7.389c0.098,0,0.278-0.011,0.499-0.033c1.192-0.117,3.954-0.641,6.146-2.404c0.504-0.408,0.97-0.884,1.384-1.434  l0.033-0.038l0.016-0.021c0.738-1.003,1.286-2.254,1.474-3.822l0.034-0.172l0.01-0.264c0.023-0.264,0.04-0.528,0.04-0.812  C154.597,16.872,154.566,16.398,154.522,15.941 M148.391,19.991c-0.006,0.006-0.01,0.016-0.016,0.023l-0.076,0.121l-0.209,0.255  c-0.012,0.013-0.026,0.029-0.036,0.04l-0.014,0.019l-0.04,0.039c-0.23,0.24-0.471,0.431-0.725,0.583l-0.048,0.034l-0.091,0.043  c-0.277,0.148-0.565,0.259-0.845,0.335c-0.694,0.189-1.352,0.189-1.77,0.189h-2.496l-0.047-0.127v-9.494v-0.208h0.372h0.544h0.973  h0.5h0.153h0.631c0.26,0.016,0.582,0.055,0.933,0.139c0.216,0.052,0.436,0.124,0.663,0.216c0.704,0.287,1.414,0.804,1.893,1.704  c0.349,0.65,0.578,1.494,0.578,2.618C149.218,18.126,148.886,19.232,148.391,19.991z"/>
<path fill="#009AA0" d="M68.966,37.123l-0.003-0.032l-0.006-0.063l-0.022-0.157l-0.04-0.238l-0.042-0.222l-0.022-0.115  c-0.608-2.615-2.713-3.422-4.162-3.663c-0.705-0.079-1.434-0.094-1.434-0.094H59.97h-0.587v0.886v8.651v0.003v0.006v0.192v0.386  h0.587h3.921c0.052,0,0.15-0.004,0.263-0.017c0.633-0.065,2.102-0.343,3.264-1.274c0.268-0.216,0.518-0.468,0.735-0.764l0.018-0.02  l0.007-0.012c0.393-0.532,0.684-1.196,0.784-2.027l0.016-0.091l0.007-0.139c0.013-0.143,0.02-0.282,0.02-0.435  C69.004,37.616,68.99,37.366,68.966,37.123 M65.71,39.269c-0.001,0.007-0.004,0.01-0.006,0.013l-0.043,0.065l-0.111,0.134  c-0.005,0.006-0.012,0.018-0.019,0.026l-0.007,0.006l-0.023,0.025c-0.12,0.124-0.248,0.225-0.384,0.307l-0.027,0.018l-0.045,0.025  c-0.148,0.079-0.3,0.135-0.45,0.177c-0.367,0.099-0.716,0.099-0.938,0.099h-1.325l-0.025-0.069v-5.036v-0.109h0.196h0.288h0.518  h0.266h0.081h0.334c0.137,0.006,0.31,0.029,0.496,0.072c0.112,0.024,0.232,0.067,0.352,0.114c0.373,0.152,0.75,0.431,1.004,0.906  c0.185,0.346,0.307,0.794,0.307,1.389C66.152,38.282,65.974,38.867,65.71,39.269z"/>
<path fill="#009AA0" d="M108.362,39.087c0.307-0.14,0.581-0.336,0.829-0.558l0.146-0.118l0.161-0.163l0.059-0.059l0.126-0.153  l0.093-0.124l0.026-0.033c0.354-0.529,0.561-1.166,0.572-1.845c0-0.019,0.006-0.039,0.006-0.059c0-0.076-0.017-0.146-0.022-0.221  c-0.011-0.154-0.017-0.313-0.046-0.458l-0.003-0.017c-0.029-0.134-0.079-0.258-0.121-0.388c-0.443-1.313-1.65-2.269-3.099-2.321  h-0.257h-0.921h-0.301h-0.235h-3.281h-0.563v1.398v8.002v0.012v0.014v0.691h0.03h0.533h1.069h1.317v-0.538v-0.222v-2.511  l0.027-0.022h0.853l2.383,3.292h3.295L108.362,39.087z M107.419,36.784c-0.111,0.157-0.261,0.283-0.434,0.375  c-0.17,0.085-0.362,0.143-0.566,0.143h-0.735h-0.221h-0.516h-0.467V37.18v-2.242v-0.101h0.708h0.259h0.221h0.751  c0.236,0,0.457,0.072,0.645,0.189l0.016,0.006l0.006,0.006c0.339,0.22,0.564,0.601,0.564,1.035  C107.65,36.338,107.565,36.581,107.419,36.784z"/>
<path fill="#009AA0" d="M133.033,18.939l0.003-0.04c-0.007,0.059-0.016,0.115-0.02,0.174L133.033,18.939z"/>
<path fill="#009AA0" d="M130.692,7.304h-2.413c0,0-0.022-0.001-0.052,0h-0.619v10.499v0.852c-0.029,0.469-0.121,1.07-0.359,1.652  c-0.088,0.212-0.189,0.422-0.322,0.621c-0.46,0.696-1.222,1.244-2.464,1.336c-0.117,0.009-0.227,0.026-0.352,0.026  c-2.737,0-3.337-2.164-3.447-3.486l-0.05-11.501h-5.477v0.597v0.596v8.916v0.592h0.008l0.017,0.303l0.054,0.891l0.05,0.444  l0.062,0.339c0.503,2.579,2.213,6.236,7.765,6.748l0.217,0.014l0.332,0.029c0.258,0.016,0.525,0.025,0.8,0.025  c1.305,0,2.407-0.19,3.346-0.512l0.109-0.039l0.216-0.072c3.106-1.202,4.283-3.917,4.721-6.007l0.04-0.209l0.103-0.629l0.036-0.259  c0.004-0.056,0.013-0.114,0.02-0.173l0.023-0.564l0.024-0.393v-0.088v-0.44V7.304H130.692z"/>
<path fill="#009AA0" d="M94.487,13.905v-0.044l-0.003-0.02c-0.062-1.064-0.347-2.064-0.833-2.948l-0.006-0.011l-0.023-0.032  c-0.03-0.056-0.071-0.108-0.101-0.16l-0.167-0.283l-0.072-0.086c-0.514-0.75-1.165-1.397-1.927-1.893  c-0.457-0.299-0.953-0.541-1.476-0.723l-0.293-0.094l-0.34-0.087c-0.001-0.001-0.001-0.003-0.003-0.003  c-0.016-0.003-0.029-0.007-0.043-0.011L88.98,7.454l-0.158-0.032l-0.236-0.047h-0.072c-0.006,0-0.01-0.002-0.017-0.003  c-0.115-0.016-0.227-0.027-0.33-0.037c-0.38-0.036-0.666-0.039-0.666-0.039h-4.003h-0.457h-1.307h-3.564h-0.6v14.786v2.82v1.45  h5.471v-3.904v-0.493v-0.796h0.881h0.895h1.145h1.071h0.898v-0.017c1.465-0.071,2.808-0.598,3.895-1.443  c1.61-1.25,2.654-3.194,2.68-5.384c0.001-0.028,0.006-0.055,0.006-0.082C94.51,14.122,94.493,14.015,94.487,13.905 M88.953,14.945  l-0.016,0.058c-0.04,0.157-0.1,0.294-0.164,0.422l-0.105,0.198c-0.071,0.112-0.146,0.219-0.228,0.306l-0.065,0.066  c-0.086,0.081-0.176,0.152-0.267,0.214c-0.087,0.057-0.173,0.104-0.259,0.146c-0.056,0.027-0.114,0.062-0.166,0.083  c-0.003,0.003-0.006,0.003-0.008,0.003c-0.095,0.036-0.179,0.062-0.263,0.082c-0.06,0.018-0.109,0.028-0.16,0.039  c-0.143,0.027-0.255,0.036-0.28,0.036h-2.028h-1.65h-0.255v-1.111v-0.193v-2.073v-1.183v-0.101h0.116h1.172h2.645  c0,0,0.032,0.001,0.079,0.006c0.202,0.02,0.76,0.109,1.235,0.499c0.019,0.017,0.039,0.033,0.059,0.047l0.255,0.282  c0.02,0.026,0.037,0.049,0.055,0.075l0.059,0.092c0.001,0,0.001,0.001,0.001,0.003c0.065,0.105,0.114,0.222,0.161,0.348  c0.095,0.261,0.156,0.567,0.156,0.939C89.033,14.497,89.002,14.733,88.953,14.945z"/>
<path fill="#009AA0" d="M89.061,36.069v-0.023l-0.003-0.012c-0.03-0.562-0.183-1.094-0.439-1.56l-0.004-0.006l-0.013-0.019  c-0.016-0.027-0.037-0.056-0.054-0.085l-0.086-0.149l-0.04-0.046c-0.273-0.396-0.617-0.739-1.021-1.003  c-0.242-0.157-0.504-0.285-0.782-0.382l-0.155-0.046l-0.18-0.049c-0.001-0.003-0.001-0.003-0.003-0.003  c-0.007,0-0.014-0.003-0.022-0.003l-0.117-0.031l-0.084-0.018l-0.125-0.025h-0.038h-0.01c-0.059-0.01-0.12-0.015-0.174-0.022  c-0.201-0.02-0.353-0.02-0.353-0.02H83.24h-0.242h-0.695h-1.887h-0.319v7.832v1.492v0.77h2.901v-2.067v-0.264v-0.421h0.465h0.476  h0.605h0.567h0.477v-0.008c0.774-0.033,1.487-0.317,2.061-0.764c0.854-0.662,1.407-1.689,1.422-2.849  c0-0.017,0.001-0.031,0.001-0.046C89.072,36.183,89.064,36.128,89.061,36.069 M86.129,36.621l-0.007,0.029  c-0.023,0.082-0.053,0.157-0.088,0.227l-0.055,0.103c-0.037,0.06-0.078,0.115-0.121,0.163l-0.033,0.033  c-0.047,0.045-0.095,0.082-0.144,0.114c-0.045,0.03-0.091,0.058-0.135,0.081c-0.03,0.013-0.059,0.027-0.088,0.042h-0.004  c-0.051,0.02-0.097,0.032-0.14,0.043c-0.032,0.011-0.058,0.014-0.085,0.023c-0.075,0.014-0.134,0.016-0.148,0.016h-1.074h-0.874  h-0.134v-0.59v-0.099v-1.1v-0.623v-0.055h0.061h0.62h1.401c0,0,0.017,0,0.044,0.005c0.104,0.009,0.402,0.059,0.652,0.264  c0.012,0.006,0.022,0.016,0.032,0.027l0.135,0.144c0.01,0.013,0.019,0.027,0.029,0.042l0.033,0.048l0.001,0.004  c0.032,0.054,0.058,0.117,0.084,0.183c0.049,0.135,0.082,0.3,0.082,0.497C86.172,36.38,86.155,36.51,86.129,36.621z"/>
</svg>